<?xml version="1.0" encoding="utf-8"?>
<!-- Generator: Adobe Illustrator 25.4.1, SVG Export Plug-In . SVG Version: 6.00 Build 0)  -->
<svg version="1.1" id="Layer_1" xmlns="http://www.w3.org/2000/svg" xmlns:xlink="http://www.w3.org/1999/xlink" x="0px" y="0px"
	 viewBox="0 0 284.7 70" style="enable-background:new 0 0 284.7 70;" xml:space="preserve">
<style type="text/css">
	.st0{fill:#103389;}
	.st1{fill:#F43737;}
</style>
<g id="bg">
</g>
<g id="logo">
	<g>
		<path class="st0" d="M0,54.6L7.5,1.3l8.4-1.2L13,19.7c1.7-2.3,3.7-3.4,6.2-3.4c5.5,0,8.5,4.8,8.8,11.5c0.7,12.7-4,26.8-14.1,26.8
			c-2.7,0-5.4-0.9-6.9-1.8L0,54.6z M9.5,45.8c0.8,1,2,1.6,3.4,1.6c4.7,0,7.2-10.3,6.8-18.1c-0.2-3.8-1.2-5.5-3.5-5.5
			c-1.6,0-3.2,1.8-4.1,3.8L9.5,45.8z"/>
		<path class="st0" d="M30.6,41.8c-0.6-11.6,4-25.4,15-25.4c7.1,0,11.3,4.5,11.8,12.8c0.6,11.6-4,25.4-15,25.4
			C35.3,54.6,31.1,50.2,30.6,41.8z M49,29c-0.2-3.5-1-5.5-3.4-5.5c-5.2,0-6.7,13.3-6.5,18.5c0.2,3.4,1,5.4,3.4,5.4
			C47.8,47.4,49.2,34.1,49,29z"/>
		<path class="st0" d="M73.3,53.5l3.5-24.6c0.4-3-0.3-4.9-2.4-4.9c-1.5,0-3.4,1.7-4.7,3.6L66,53.5h-8.2l5-35.8l8.5-1.4l-0.8,4.5
			c2.4-3.1,5.3-4.5,8.1-4.5c5.3,0,7.5,5.2,6.6,11.3l-3.7,25.9H73.3z"/>
		<path class="st0" d="M101.4,53.5l3.5-24.6c0.4-3-0.3-4.9-2.4-4.9c-1.5,0-3.4,1.7-4.7,3.6l-3.7,25.9h-8.2l5-35.8l8.5-1.4l-0.8,4.5
			c2.4-3.1,5.3-4.5,8.1-4.5c5.3,0,7.5,5.2,6.6,11.3l-3.7,25.9H101.4z"/>
		<path class="st0" d="M137.2,52c-1.9,1.5-4.9,2.6-8.2,2.6c-8.2,0-12.2-4.8-12.6-12.8c-0.6-11.9,4.6-25.4,15.6-25.4
			c6.2,0,9.4,4,9.7,10.2c0.2,3.6-0.5,7.8-1.5,11.4h-15.1c-0.2,1.3-0.2,2.1-0.1,3.2c0.2,4.2,1.7,6.2,5.6,6.2c2.3,0,4.7-1.2,6.4-3
			L137.2,52z M132.9,32.2c0.4-1.6,0.6-3.4,0.5-4.8c-0.1-2.3-0.6-3.5-2.4-3.5c-2.2,0-4.2,2.7-5.3,8.4h7.2V32.2z"/>
		<path class="st0" d="M142.5,53.5l5-35.8l8.5-1.4l-1,5.6c1.9-4,4.1-5.6,6.8-5.6c1.4,0,2.6,0.6,3.6,1.6l-2.8,8.5
			c-0.8-0.9-1.7-1.4-2.9-1.4c-2.1,0-4.6,3.1-6.1,8l-2.9,20.6L142.5,53.5L142.5,53.5z"/>
		<path class="st1" d="M192.9,42.6c-0.5-10.2,3.3-25.8,13.4-25.8c6.1,0,9.2,4.9,9.6,11.7c0.5,10.2-3.3,25.8-13.4,25.8
			C196.4,54.4,193.3,49.5,192.9,42.6z M211.6,28.2c-0.2-4.5-1.7-7.7-5.4-7.7c-7.3,0-9.2,16.1-8.9,22.4c0.2,4.5,1.7,7.7,5.4,7.7
			C209.9,50.6,211.9,34.5,211.6,28.2z"/>
		<path class="st1" d="M229.9,52.8c-1.4,0.9-3.5,1.6-5.2,1.6c-4.5,0-6.8-3.1-5.8-10.1l3.2-22.6l-3.3-0.3l0.5-2.8l3.4-0.9l1.2-8.4
			h4.1l-1.3,8.5h7.7l-0.7,3.7h-7.4l-3.3,24c-0.4,3.4,0.1,5.1,2.5,5.1c1.3,0,3.2-0.9,4.3-1.9L229.9,52.8z"/>
		<path class="st1" d="M249.9,51.6c-1.7,1.8-4.4,2.8-7.1,2.8c-6.7,0-9.5-5-9.8-11.5c-0.5-10.1,3.3-26.1,13.7-26.1
			c5.2,0,7.5,3.6,7.7,8.6c0.2,3.3-0.5,7.1-1.4,10.5h-15.5c-0.3,2.5-0.3,4.9-0.2,6.8c0.2,4.7,1.7,7.8,6,7.8c2.3,0,4.6-1.6,6.4-3.7
			L249.9,51.6z M249.8,32.5c0.5-1.8,0.8-4.7,0.7-6.7c-0.2-3.1-1.3-5.2-4-5.2c-4.2,0-7.1,5.8-8.4,12L249.8,32.5L249.8,32.5z"/>
		<path class="st1" d="M255.3,47.3c1.8,2,4,3.3,6.5,3.3c3.8,0,6-2.9,5.8-6.5c-0.1-2.7-1.6-5.2-4.5-7.5c-3.3-2.6-5.6-5.8-5.8-9.6
			c-0.3-6.2,3.8-10.2,9.4-10.2c2.5,0,5.4,1.1,7.3,2.9l-1.4,3.7c-1.7-1.7-3.8-2.8-5.9-2.8c-3.5,0-5.6,2.6-5.4,6.1
			c0.1,2.5,1.5,4.7,4.4,7c3.5,2.8,5.7,6.4,5.9,10.2c0.3,5.9-3.7,10.5-9.9,10.5c-3.1,0-6.2-1.2-7.9-3.2L255.3,47.3z"/>
		<path class="st1" d="M276.8,16.4v-4.6h-1.2v-1.1h3.5v1.1h-1.2v4.6H276.8z M283.6,16.4V12h-0.1l-0.8,4.3h-1.2l-0.8-4.3h-0.1v4.4
			h-1.1l0.1-5.7h1.8l0.6,4h0.1l0.6-4h1.8l0.1,5.7H283.6z"/>
		<g>
			<path class="st1" d="M175.5,53.7L172,18h4.3l2.5,28.6l14.9-41.8h4.5l-17.9,48.9H175.5z"/>
		</g>
		<g>
			<path class="st1" d="M173.9,70.1c35.5-7.1,71.7-7.9,107.7-8.5c2,0,2.5-2.6,1-3.6c-0.6-0.5-1.3-0.9-1.9-1.4c-2.1-1.5-4,1.9-2,3.4
				c0.6,0.5,1.3,0.9,1.9,1.4c0.3-1.2,0.7-2.4,1-3.6c-36.4,0.7-73,1.5-108.8,8.7C170.3,66.8,171.4,70.6,173.9,70.1L173.9,70.1z"/>
		</g>
	</g>
</g>
</svg>
