<?xml version="1.0" encoding="utf-8"?>
<!-- Generator: Adobe Illustrator 25.4.1, SVG Export Plug-In . SVG Version: 6.00 Build 0)  -->
<svg version="1.1" id="Layer_1" xmlns="http://www.w3.org/2000/svg" xmlns:xlink="http://www.w3.org/1999/xlink" x="0px" y="0px"
	 viewBox="0 0 444 176" style="enable-background:new 0 0 444 176;" xml:space="preserve">
<style type="text/css">
	.st0{fill:#FFFFFF;}
	.st1{fill:#F43737;}
	.st2{font-family:'SofiaPro-Regular';}
	.st3{font-size:12.1592px;}
</style>
<g id="footer_logo" transform="translate(-854.24 -2908.294)">
	<g id="logo" transform="translate(854.24 2908.294)">
		<g id="Group_29" transform="translate(0)">
			<g id="Group_28">
				<path id="Path_57" class="st0" d="M105.3,62.5c0-18.8,15-31,31.6-31s31.8,12.2,31.8,31c0,18.7-15.1,30.8-31.8,30.8
					S105.3,81.2,105.3,62.5z M149.8,62.5c0-8.1-5.8-13.6-12.9-13.6S124,54.4,124,62.5S129.8,76,137,76S149.8,70.6,149.8,62.5
					L149.8,62.5z"/>
				<path id="Path_58" class="st0" d="M234.1,60.4v31.8h-18.5V62.5c0-9.1-5.5-12.6-10.1-12.6c-5,0-11.3,2.7-11.3,12.6v29.7h-18.5
					V33.1h18.5v10.5c2-8.4,11.3-12.1,16.8-12.1C226.4,31.6,234.1,42.2,234.1,60.4z"/>
				<path id="Path_59" class="st0" d="M299.7,60.4v31.8h-18.5V62.5c0-9.1-5.5-12.6-10.1-12.6c-5,0-11.3,2.7-11.3,12.6v29.7h-18.5
					V33.1h18.5v10.5c2-8.4,11.3-12.1,16.8-12.1C292,31.6,299.7,42.2,299.7,60.4z"/>
				<path id="Path_60" class="st0" d="M367.9,68.1h-42.6c1.7,5.6,6.6,8.9,13.6,8.9c5.5,0,10.7-2,14.8-5.7l9.5,12.2
					c-5.8,6.3-15.8,9.9-25.6,9.9c-18.4,0-31.5-12.6-31.5-30.6c0-19.3,14.8-31.2,31.5-31.2c16.6,0,30.8,11.8,30.8,29.8
					C368.3,63,368.1,65.2,367.9,68.1z M349.8,57.1c-0.1-5.8-5.3-9.6-11.9-9.6c-5.6,0-10.9,2.5-12.8,9.6H349.8z"/>
				<path id="Path_61" class="st0" d="M419.5,33.3l-4.4,17.9c-2.5-1.5-5.4-2.3-8.4-2.3c-7.3,0-13.2,6.1-13.2,23.6v19.7H375V33.1
					h18.3v12.4c3.4-9.8,10.4-14,17.5-14C413.7,31.4,416.7,32,419.5,33.3z"/>
				<g id="Group_27">
					<path id="Path_62" class="st1" d="M24.6,20.5c0.2-0.2,0.2-0.5,0-0.8c-0.2-0.2-0.5-0.3-0.7-0.2L16.1,22l-5-7
						c-0.2-0.2-0.5-0.3-0.7-0.2c-0.3,0.1-0.5,0.3-0.5,0.6V24l-7.8,2.5c-0.3,0.1-0.5,0.5-0.4,0.8c0.1,0.2,0.2,0.4,0.4,0.4l7.8,2.6
						v8.3c0,0.3,0.2,0.5,0.5,0.6c0.1,0,0.1,0,0.2,0c0.2,0,0.4-0.1,0.5-0.3l4.9-6.7l7.9,2.6c0.3,0.1,0.6,0,0.7-0.2
						c0.2-0.2,0.2-0.5,0-0.8L19.7,27L24.6,20.5z"/>
						<!-- the above path is the star -->
					<path id="Path_63" class="st0" d="M70.7,31.7c-6,0-13.8,2.3-18,7.7V1.9H34.2V32h-3.1v0.1l2.2,3.1l0,0l2,2.8l0.4,0.5
						c0.2,0.2,0.2,0.5,0,0.8c-0.1,0.1-0.2,0.2-0.3,0.2s-0.3,0-0.4,0l-3.8-1.2c0,6.3,0,13.9,0,19l0,0c0,0,0,0.1,0,0.3v0.2l0,0
						c0.1,1.5,0.7,5.9,1.6,6.8c1.1,1-2.7,6.7-2.7,9.2c0,0.2,0.1,0.4,0.2,0.6v0.1c0,0,0,0,0.1,0c0.6,1.1,2.2,0.2,1.3,1.8
						c-1,1.9-0.4,1.6-0.4,2.8c0,4.3,0,8.6,0,12.9v0.3h32.5c2.3,0.7,4.7,1.1,7.1,1.1c14.6,0,28.4-11.7,28.4-30.8S85.4,31.7,70.7,31.7
						z M70.5,75.3v6h-0.1c0,2.1,0,4.3,0,6.4V88h-3.8c0-1.4,0-2.9,0-4.3h0.1V73c0-0.3,0-0.5,0-0.7v-0.1l0,0c-0.1-1-0.5-1.4-1.8-1.1
						c-6.7,1.6-7.3-3.9-10.5-4c-2-0.1-2.6-5.5-3.5-5.7c-0.2,0-0.4,0.1-0.5,0.2l0,0l0,0c-0.6,0.4-1.2,0.8-1.9,0.9
						c-0.4,0.1-0.4-1.2-0.4-2.3c0-2.2,1.9-6.2,0.2-6.3c-2.6-0.2-2.5-2.2-4.9-4.4s-1.6-2.9-2.3-4.3c-0.5-0.9-1.2-1.6-2.1-2.1
						l-0.1-0.6c0-2.6,0-5.2,0-7.8L39,32h3.7v0.3c0,2.6,0,5.2,0,7.8l0.1,0.6c0.9,0.5,1.6,1.2,2.1,2.1c0.7,1.4-0.1,2,2.3,4.3
						s2.4,4.3,4.9,4.4c1.8,0.1-0.1,4.2-0.2,6.3c0,1.2,0,2.4,0.4,2.3c0.5-0.1,1-0.3,1.4-0.6c1.5-6.1,6.9-10.3,13.2-10.4
						c7.3-0.1,13.4,5.7,13.5,13.1C80.5,68.3,76.4,73.7,70.5,75.3L70.5,75.3z"/>
				</g>
			</g>
		</g>
		<g id="Group_35" transform="translate(140.304 111.122)">
			<g id="Group_33" transform="translate(3.805)">
				<g id="Group_32">
					<g id="Group_30" transform="translate(26.705 0.173)">
						<path id="Path_64" class="st0" d="M1.8,31.2c1-9,8.4-15.9,17.4-16.5C27.7,14.2,34,20,32.9,29.5c-1.1,9.1-8.4,16.1-17.5,16.7
							C6.9,46.7,0.6,40.8,1.8,31.2z M28.8,29.8c0.9-7.1-3.9-11.4-10.1-11.1C12,19.1,6.6,24.3,5.8,31c-0.9,7.2,3.7,11.6,10,11.3
							C22.6,41.8,28,36.5,28.8,29.8L28.8,29.8z"/>
						<path id="Path_65" class="st0" d="M53.2,17.1l-6.8,0.4l-3.3,26.7l-4,0.2l3.3-26.7L37,18l0.4-3.6l5.4-0.3l1.5-12l4-0.2L46.8,14
							l6.8-0.4L53.2,17.1z"/>
						<path id="Path_66" class="st0" d="M83.7,28.7L58.2,30c-0.1,6.4,3.9,9.8,9.9,9.5c4.1-0.2,7.9-2.3,10.3-5.7l3.3,1.4
							c-3.1,4.9-8.4,8-14.2,8.3c-8.4,0.4-14.4-5.5-13.2-15.1c0.9-8.9,8.1-15.9,17-16.5c8.5-0.4,13.9,5.3,12.7,14.9
							C83.9,27.5,83.8,28.1,83.7,28.7z M80.2,25.4c0.2-6.3-3.6-9.7-9.4-9.4c-5.8,0.3-10.6,4-12.1,10.5L80.2,25.4z"/>
						<path id="Path_67" class="st0" d="M87.3,33.7l3.8-0.2c0.1,2.5,2.1,5,6.4,4.7c4.3-0.2,7.1-2.5,7.5-5.5c0.3-2.5-1.1-4-4.1-4.6
							l-4.1-0.8c-4.1-0.8-7.2-2.8-6.5-7.9c0.6-4.9,5.2-8.7,10.8-9c5-0.3,9.2,2.3,8.7,7.7l-3.9,0.2c0.1-2.7-2.2-4.4-5.2-4.2
							c-3.4,0.2-6,2.3-6.4,5.2s1.9,4,4,4.4l4.3,0.9c5.6,1.1,7,4.6,6.5,8.1c-0.6,5.4-5.8,9.1-12,9.4C91.9,42.3,87.1,39.5,87.3,33.7z"
							/>
					</g>
					<g id="Group_31">
						<path id="Path_68" class="st0" d="M33,1.9L14.5,47.2l-4.4,0.2L1.6,17.7L6,17.5l7.1,23.1L28.7,2.1L33,1.9z"/>
					</g>
				</g>
			</g>
			<g id="Group_34" transform="translate(0 47.278)">
				<path id="Path_69" class="st1" d="M5.1,15.7C55.3,9.2,109,7.4,160,6.8c2.9,0,3.6-2.3,1.4-3.3l-2.7-1.2c-2.9-1.3-5.7,1.8-2.8,3.1
					l2.7,1.2l1.4-3.3C108.5,3.9,54.3,5.8,3.6,12.4C0.1,12.7,1.6,16.1,5.1,15.7L5.1,15.7z"/>
			</g>
		</g>
		<text transform="matrix(1 0 0 1 282.0135 125.1948)" class="st0 st2 st3">™</text>
	</g>
</g>
</svg>
