<?xml version="1.0" encoding="utf-8"?>
<!-- Generator: Adobe Illustrator 25.4.1, SVG Export Plug-In . SVG Version: 6.00 Build 0)  -->
<svg version="1.1" id="Layer_1" xmlns="http://www.w3.org/2000/svg" xmlns:xlink="http://www.w3.org/1999/xlink" x="0px" y="0px"
	 viewBox="0 0 282.1 50.7" style="enable-background:new 0 0 282.1 50.7;" xml:space="preserve">
<style type="text/css">
	.st0{fill:#FFFFFF;}
	.st1{fill:#F43737;}
	.st2{font-family:''sofia-pro', 'Helvetica Neue', 'Helvetica', 'Arial', sans-serifProMedium';}
	.st3{font-size:5px;}
</style>
<g id="Group_76" transform="translate(-801.95 -107.841)">
	<g id="logo" transform="translate(801.95 107.841)">
		<g id="Group_40" transform="translate(0 0)">
			<g id="Group_39">
				<g id="Group_38">
					<path id="Path_70" class="st0" d="M43.4,25.7c0-7.7,6.1-12.6,12.9-12.6s13,5,13,12.6s-6.2,12.6-13,12.6S43.4,33.3,43.4,25.7z
						 M61.5,25.7c0.2-2.9-2.1-5.4-4.9-5.5c-0.1,0-0.2,0-0.3,0c-2.9,0-5.3,2.3-5.3,5.2c0,0.1,0,0.2,0,0.3c-0.2,2.9,2,5.3,4.9,5.5
						c0.1,0,0.2,0,0.3,0c2.9,0,5.2-2.3,5.3-5.1C61.5,25.9,61.5,25.8,61.5,25.7z"/>
					<path id="Path_71" class="st0" d="M95.8,24.8v13h-7.5V25.7c0-3.7-2.2-5.1-4.1-5.1c-2,0-4.6,1.1-4.6,5.1v12.1h-7.5V13.7h7.5V18
						c0.8-3.4,4.6-4.9,6.8-4.9C92.7,13.1,95.8,17.4,95.8,24.8z"/>
					<path id="Path_72" class="st0" d="M122.6,24.8v13h-7.5V25.7c0-3.7-2.2-5.1-4.1-5.1c-2,0-4.6,1.1-4.6,5.1v12.1h-7.5V13.7h7.5V18
						c0.8-3.4,4.6-4.9,6.8-4.9C119.5,13.1,122.6,17.4,122.6,24.8z"/>
					<path id="Path_73" class="st0" d="M150.4,28H133c0.7,2.3,2.7,3.6,5.6,3.6c2.2,0,4.4-0.8,6-2.3l3.9,5c-2.3,2.6-6.4,4-10.5,4
						c-7.5,0-12.8-5.1-12.8-12.5c0-7.9,6-12.7,12.8-12.7s12.5,4.8,12.5,12.2C150.5,25.9,150.5,26.8,150.4,28z M143,23.5
						c-0.1-2.4-2.1-3.9-4.8-3.9c-2.5-0.2-4.7,1.5-5.2,3.9H143z"/>
					<path id="Path_74" class="st0" d="M171.4,13.8l-1.8,7.3c-1-0.6-2.2-0.9-3.4-0.9c-3,0-5.4,2.5-5.4,9.6v8h-7.5V13.7h7.4v5.1
						c1.4-4,4.2-5.7,7.1-5.7C169.1,13,170.3,13.3,171.4,13.8z"/>
					<g id="Group_37">
						<path id="Path_75" class="st1" d="M10.5,8.6c0.1-0.1,0.1-0.2,0-0.3c-0.1-0.1-0.2-0.1-0.3-0.1L7,9.2L5,6.4
							C4.9,6.3,4.8,6.3,4.7,6.3c-0.1,0-0.2,0.1-0.2,0.3v3.5l-3.2,1c-0.1,0-0.2,0.1-0.2,0.3c0,0.1,0.1,0.2,0.2,0.3l3.2,1v3.4
							c0,0.1,0.1,0.2,0.2,0.3h0.1c0.1,0,0.2,0,0.2-0.1l2-2.7l3.2,1.1c0.1,0,0.2,0,0.3-0.1c0.1-0.1,0.1-0.2,0-0.3l-2-2.8L10.5,8.6z"
							/>
						<path id="Path_76" class="st0" d="M29.3,13.1c-2.4,0-5.6,0.9-7.3,3.2V1h-7.5v12.3h-1.4l0,0l0.9,1.3l0,0l0.8,1.1l0.2,0.2
							c0.1,0.1,0.1,0.2,0,0.3l-0.1,0.1c-0.1,0-0.1,0-0.2,0l-1.6-0.5c0,2.6,0,5.7,0,7.7l0,0c0,0,0,0,0,0.1v0.1l0,0
							c0.1,0.6,0.3,2.4,0.6,2.8c0.5,0.4-1.1,2.7-1.1,3.8c0,0.1,0,0.2,0.1,0.2c0,0,0,0,0,0.1l0,0c0.2,0.4,0.9,0.1,0.5,0.7
							C12.8,32.1,13,32,13,32.4c0,1.7,0,3.5,0,5.2v0.1h13.2c0.9,0.3,1.9,0.4,2.9,0.5c6,0,11.6-4.8,11.6-12.6S35.2,13.1,29.3,13.1z
							 M29.2,30.9v2.4l0,0c0,0.9,0,1.7,0,2.6V36h-1.5c0-0.6,0-1.2,0-1.8l0,0v-4.4c0-0.1,0-0.2,0-0.3l0,0l0,0c0-0.4-0.2-0.6-0.7-0.5
							c-2.7,0.6-3-1.6-4.3-1.6c-0.8,0-1.1-2.2-1.4-2.3c-0.1,0-0.1,0.1-0.2,0.1l0,0l0,0c-0.2,0.2-0.5,0.3-0.8,0.4
							c-0.2,0-0.2-0.5-0.2-1c0-0.9,0.8-2.5,0.1-2.6c-1-0.1-1-0.9-2-1.8s-0.7-1.2-0.9-1.8c-0.2-0.4-0.5-0.6-0.9-0.8l-0.1-0.2
							c0-1.1,0-2.1,0-3.2v-1.1h1.5v0.1c0,1.1,0,2.1,0,3.2l0.1,0.3c0.4,0.2,0.7,0.5,0.9,0.8c0.3,0.6,0,0.8,0.9,1.8c1,0.9,1,1.7,2,1.8
							c0.7,0-0.1,1.7-0.1,2.6c0,0.5,0,1,0.2,1s0.4-0.1,0.6-0.2c0.6-2.5,2.8-4.2,5.4-4.2c3,0,5.5,2.4,5.5,5.4
							C33.2,28.1,31.5,30.3,29.2,30.9L29.2,30.9z"/>
					</g>
				</g>
			</g>
		</g>
		<g id="Group_46" transform="translate(171.637 7.693)">
			<g id="Group_44" transform="translate(2.561)">
				<g id="Group_43">
					<g id="Group_41" transform="translate(17.971 0.118)">
						<path id="Path_77" class="st0" d="M1.2,20.7C1.9,14.6,6.8,10,12.9,9.6c5.7-0.3,10,3.5,9.2,10c-0.7,6.1-5.7,10.8-11.8,11.2
							C4.6,31.1,0.4,27.2,1.2,20.7z M19.4,19.8c0.6-4.8-2.6-7.7-6.8-7.5c-4.5,0.3-8.2,3.8-8.7,8.3c-0.6,4.8,2.5,7.8,6.7,7.6
							C15.2,27.8,18.9,24.3,19.4,19.8L19.4,19.8z"/>
						<path id="Path_78" class="st0" d="M35.8,11.2l-4.6,0.2l-2.1,18l-2.7,0.1l2.2-17.9L25,11.8l0.3-2.4l3.6-0.2l1-8.1L32.6,1
							l-1,8.1l4.6-0.2L35.8,11.2z"/>
						<path id="Path_79" class="st0" d="M56.3,19l-17.2,0.9c-0.1,4.3,2.6,6.6,6.7,6.4c2.8-0.1,5.3-1.6,6.9-3.8l2.2,0.9
							c-2.1,3.3-5.7,5.4-9.6,5.6c-5.6,0.3-9.7-3.7-8.9-10.1c0.6-6,5.4-10.7,11.5-11.1c5.7-0.3,9.3,3.6,8.5,10
							C56.5,18.2,56.4,18.7,56.3,19z M54,16.8c0.1-4.2-2.4-6.5-6.3-6.3c-4,0.2-7.4,3.1-8.2,7.1L54,16.8z"/>
						<path id="Path_80" class="st0" d="M58.7,22.4l2.5-0.1c0.1,1.7,1.4,3.3,4.3,3.2c2.9-0.1,4.8-1.7,5-3.7c0.2-1.7-0.8-2.7-2.8-3.1
							l-2.8-0.6c-2.7-0.5-4.8-1.9-4.4-5.3c0.4-3.3,3.5-5.9,7.3-6.1c3.3-0.2,6.2,1.5,5.9,5.2L71.1,12c0.1-1.8-1.5-3-3.5-2.8
							c-2.3,0.1-4.1,1.5-4.3,3.5s1.3,2.7,2.7,2.9l2.9,0.6c3.8,0.8,4.7,3.1,4.4,5.4c-0.4,3.6-3.9,6.1-8.1,6.3
							C61.8,28.2,58.6,26.3,58.7,22.4z"/>
					</g>
					<g id="Group_42">
						<path id="Path_81" class="st0" d="M22.2,1L9.7,31.5l-2.9,0.2l-5.7-20L4,11.5l4.8,15.6L19.3,1.2L22.2,1z"/>
					</g>
				</g>
			</g>
			<g id="Group_45" transform="translate(0 31.818)">
				<path id="Path_82" class="st1" d="M3.4,10.3c33.8-4.4,69.9-5.6,104.2-6c1.9,0,2.4-1.6,0.9-2.2l-1.8-0.8c-2-0.9-3.8,1.2-1.9,2.1
					l1.8,0.8l0.9-2.2C72.8,2.4,36.4,3.7,2.3,8.1C0.1,8.3,1.1,10.6,3.4,10.3z"/>
			</g>
		</g>
		<text transform="matrix(1 0 0 1 265.9799 14.6079)" class="st0 st2 st3">™</text>
	</g>
</g>
</svg>
