<?xml version="1.0" encoding="utf-8"?>
<!-- Generator: Adobe Illustrator 25.4.1, SVG Export Plug-In . SVG Version: 6.00 Build 0)  -->
<svg version="1.1" id="Layer_1" xmlns="http://www.w3.org/2000/svg" xmlns:xlink="http://www.w3.org/1999/xlink" x="0px" y="0px"
	 viewBox="0 0 144 36" style="enable-background:new 0 0 144 36;" xml:space="preserve">
<style type="text/css">
	.st0{fill:#EFEFF0;}
</style>
<g id="bg">
</g>
<g id="logo">
	<g id="stars" transform="translate(0 0)">
		<path id="Path_14" class="st0" d="M106,20.6l7.3-5.2h-8.9l-2.6-8.1l-2.7,8.1h-8.6l7,5.1l-0.2,0.8l-2.4,7.5l0,0l7.1-5l6.9,5l0,0
			L106,20.6z"/>
		<path id="Path_18" class="st0" d="M135.9,20.6l7.3-5.2h-8.9l-2.6-8.1l-2.7,8.1h-8.6l7,5.1l-0.2,0.8l-2.4,7.5l0,0l7.1-5l6.9,5l0,0
			L135.9,20.6z"/>
		<path id="Path_15" class="st0" d="M76.2,20.6l7.3-5.2h-8.9L72,7.3l-2.7,8.1h-8.6l7,5.1l-0.2,0.8l-2.4,7.5l0,0l7.1-5l6.9,5l0,0
			L76.2,20.6z"/>
		<path id="Path_16" class="st0" d="M46.3,20.6l7.3-5.2h-8.9L42,7.3l-2.7,8.1h-8.6l7,5.1l-0.2,0.8L35,28.7l0,0l7.1-5l6.9,5l0,0
			L46.3,20.6z"/>
		<path id="Path_17" class="st0" d="M16.4,20.6l7.3-5.2h-8.9l-2.6-8.1l-2.7,8.1H0.8l7,5.1l-0.2,0.8l-2.4,7.5l0,0l7.1-5l6.9,5l0,0
			L16.4,20.6z"/>
	</g>
</g>
</svg>
